<svg xmlns="http://www.w3.org/2000/svg" xmlns:xlink="http://www.w3.org/1999/xlink" viewBox="0 0 290.82 95.24"><defs><style>.cls-1{fill:url(#Degradado_sin_nombre_5);}.cls-2{fill:url(#Degradado_sin_nombre_5-2);}.cls-3{fill:url(#Degradado_sin_nombre_5-3);}.cls-4{fill:url(#Degradado_sin_nombre_5-4);}.cls-5{fill:url(#Degradado_sin_nombre_5-5);}.cls-6{fill:url(#Degradado_sin_nombre_5-6);}.cls-7{fill:url(#Degradado_sin_nombre_5-7);}.cls-8{fill:url(#Degradado_sin_nombre_5-8);}.cls-9{fill:url(#Degradado_sin_nombre_5-9);}.cls-10{fill:url(#Degradado_sin_nombre_5-10);}.cls-11{fill:url(#Degradado_sin_nombre_5-11);}.cls-12{fill:url(#Degradado_sin_nombre_5-12);}.cls-13{fill:url(#Degradado_sin_nombre_5-13);}.cls-14{fill:url(#Degradado_sin_nombre_5-14);}.cls-15{fill:url(#Degradado_sin_nombre_5-15);}.cls-16{fill:url(#Degradado_sin_nombre_5-16);}.cls-17{fill:url(#Degradado_sin_nombre_5-17);}</style><linearGradient id="Degradado_sin_nombre_5" y1="20.77" x2="23.94" y2="20.77" gradientUnits="userSpaceOnUse"><stop offset="0" stop-color="#25297b"/><stop offset="1" stop-color="#236887"/></linearGradient><linearGradient id="Degradado_sin_nombre_5-2" x1="26.99" y1="20.97" x2="52.76" y2="20.97" xlink:href="#Degradado_sin_nombre_5"/><linearGradient id="Degradado_sin_nombre_5-3" x1="57.23" y1="20.43" x2="82.29" y2="20.43" xlink:href="#Degradado_sin_nombre_5"/><linearGradient id="Degradado_sin_nombre_5-4" x1="85.31" y1="20.43" x2="110.81" y2="20.43" xlink:href="#Degradado_sin_nombre_5"/><linearGradient id="Degradado_sin_nombre_5-5" x1="114.76" y1="21.19" x2="140.5" y2="21.19" xlink:href="#Degradado_sin_nombre_5"/><linearGradient id="Degradado_sin_nombre_5-6" x1="172.92" y1="21.23" x2="197.74" y2="21.23" xlink:href="#Degradado_sin_nombre_5"/><linearGradient id="Degradado_sin_nombre_5-7" x1="200.52" y1="21.37" x2="230.75" y2="21.37" xlink:href="#Degradado_sin_nombre_5"/><linearGradient id="Degradado_sin_nombre_5-8" x1="233.53" y1="21.29" x2="260.61" y2="21.29" xlink:href="#Degradado_sin_nombre_5"/><linearGradient id="Degradado_sin_nombre_5-9" x1="264.59" y1="21.18" x2="290.82" y2="21.18" xlink:href="#Degradado_sin_nombre_5"/><linearGradient id="Degradado_sin_nombre_5-10" x1="53.82" y1="74.45" x2="77.38" y2="74.45" xlink:href="#Degradado_sin_nombre_5"/><linearGradient id="Degradado_sin_nombre_5-11" x1="80.32" y1="74.06" x2="107.4" y2="74.06" xlink:href="#Degradado_sin_nombre_5"/><linearGradient id="Degradado_sin_nombre_5-12" x1="111.38" y1="73.21" x2="122.41" y2="73.21" xlink:href="#Degradado_sin_nombre_5"/><linearGradient id="Degradado_sin_nombre_5-13" x1="127.47" y1="74.45" x2="151.04" y2="74.45" xlink:href="#Degradado_sin_nombre_5"/><linearGradient id="Degradado_sin_nombre_5-14" x1="155.01" y1="74.45" x2="178.58" y2="74.45" xlink:href="#Degradado_sin_nombre_5"/><linearGradient id="Degradado_sin_nombre_5-15" x1="181.52" y1="74.14" x2="211.75" y2="74.14" xlink:href="#Degradado_sin_nombre_5"/><linearGradient id="Degradado_sin_nombre_5-16" x1="216.28" y1="74" x2="241.09" y2="74" xlink:href="#Degradado_sin_nombre_5"/><linearGradient id="Degradado_sin_nombre_5-17" x1="244.91" y1="74.45" x2="268.47" y2="74.45" xlink:href="#Degradado_sin_nombre_5"/></defs><title>logo</title><g id="Capa_2" data-name="Capa 2"><g id="Capa_1-2" data-name="Capa 1"><path class="cls-1" d="M5.28,40.8q-2.58,0-3.36-1.38a5.55,5.55,0,0,1-.8-2.62l-1-25.71C0,9.78,0,8.64,0,7.68A6.24,6.24,0,0,1,1.43,3.43,7.06,7.06,0,0,1,5.57,1.27,33,33,0,0,1,11.93.74a13.62,13.62,0,0,1,6.28,1.4A10.2,10.2,0,0,1,22.46,6a11,11,0,0,1,1.48,5.77,17.48,17.48,0,0,1-2,8.3,18.76,18.76,0,0,1-5.53,6.35,18.67,18.67,0,0,1-6.68,3.31l-.41,7a8.54,8.54,0,0,1-.21,1.51,3.74,3.74,0,0,1-1.08,1.69A3.78,3.78,0,0,1,5.28,40.8Zm5.78-33-.74,13.38q5.29-2,5.29-9.67a5.19,5.19,0,0,0-.4-2.17A2.67,2.67,0,0,0,14.11,8a4.53,4.53,0,0,0-2.18-.41A2.6,2.6,0,0,0,11.06,7.76Z"/><path class="cls-2" d="M42.14,36.53A13,13,0,0,1,36.39,38a9.76,9.76,0,0,1-4.79-1.2,8.86,8.86,0,0,1-3.39-3.2A8.52,8.52,0,0,1,27,29.09a9.2,9.2,0,0,1,3.23-7.2A12.11,12.11,0,0,1,38.54,19a8.65,8.65,0,0,1,3.38.68,51,51,0,0,0-.71-6.88A10.45,10.45,0,0,0,40,8.77,2,2,0,0,0,38.46,8a.93.93,0,0,0-.8.56,4.38,4.38,0,0,0-.31,2,9.51,9.51,0,0,0,.13,1.82,18.11,18.11,0,0,1,.14,2.07,4.26,4.26,0,0,1-.91,2.82Q35.8,18.28,33,18.28a6.41,6.41,0,0,1-3.9-1,3.54,3.54,0,0,1-1.33-3,13.83,13.83,0,0,1,.87-4.55A13.58,13.58,0,0,1,31,5.45,10.12,10.12,0,0,1,34.2,2.74a9.66,9.66,0,0,1,4.7-1.08,10.33,10.33,0,0,1,6.29,1.85A13.15,13.15,0,0,1,49.1,8.09a25.82,25.82,0,0,1,2.15,6,50.2,50.2,0,0,1,1.06,6.71q.31,3.46.39,6.79c0,2.21.06,4.24.06,6.07a15.12,15.12,0,0,1-.23,2.64A5.71,5.71,0,0,1,51.2,39a4.55,4.55,0,0,1-3.67,1.32C45.12,40.29,43.32,39,42.14,36.53Zm0-10.13A7.71,7.71,0,0,0,39.58,26c-1.4.07-2.1,1-2.1,2.75,0,1.47.57,2.21,1.66,2.21a5.88,5.88,0,0,0,3-1.39Z"/><path class="cls-3" d="M64.07.93a27.62,27.62,0,0,1,5.64-.6A21,21,0,0,1,73.14.6a13.06,13.06,0,0,1,4.74,1.78A9,9,0,0,1,81.13,6a12,12,0,0,1,1.16,5.57,15.57,15.57,0,0,1-2.07,8,18.54,18.54,0,0,1-5.66,6A19,19,0,0,1,68,28.57l0,1c.13,1.6.19,3,.19,4.22A15.74,15.74,0,0,1,68,36.5a5.49,5.49,0,0,1-1.47,2.71,5.18,5.18,0,0,1-3.95,1.32,4.84,4.84,0,0,1-3.71-1.25,5.42,5.42,0,0,1-1.4-2.53,12.75,12.75,0,0,1-.26-2.48c0-1,0-1.93.11-2.89l1.36-24a8.3,8.3,0,0,1,1.17-3.88A6.19,6.19,0,0,1,64.07.93Zm3.51,20.29a9.79,9.79,0,0,0,4-4A11.65,11.65,0,0,0,73,11.63a3.78,3.78,0,0,0-.44-2,2.45,2.45,0,0,0-1-1,2.77,2.77,0,0,0-1.25-.26A7.46,7.46,0,0,0,67.2,9Z"/><path class="cls-4" d="M97.55,29.77c1,1.89,2.08,2.84,3.32,2.84a3.46,3.46,0,0,0,3.27-1.82A3,3,0,0,1,106.75,29a4,4,0,0,1,3,1.11,3.27,3.27,0,0,1,1.09,2.33,4.42,4.42,0,0,1-1.37,3.22,10.64,10.64,0,0,1-3.22,2.2A17.19,17.19,0,0,1,102.53,39a16.46,16.46,0,0,1-3.21.37,14,14,0,0,1-6.73-1.51A11.88,11.88,0,0,1,88.23,34,16.31,16.31,0,0,1,86,28.64a27.19,27.19,0,0,1-.67-6.06,46.16,46.16,0,0,1,.32-5.21,30,30,0,0,1,1.13-5.45,19.13,19.13,0,0,1,2.35-5A12.6,12.6,0,0,1,93.28,3a12.33,12.33,0,0,1,6.36-1.55q10.08,0,10.35,15.31a6.4,6.4,0,0,1-2.61,5.67,7.37,7.37,0,0,1-4.25,1.14,13.87,13.87,0,0,1-1.66-.11l-5.42-.65A14.92,14.92,0,0,0,97.55,29.77ZM99.4,7.68c-.11,0-.33.21-.67.61a7.06,7.06,0,0,0-1,2.28,25.19,25.19,0,0,0-.83,3.69c-.21,1.35-.32,2.13-.34,2.33l5.2,0Q101.71,7.68,99.4,7.68Z"/><path class="cls-5" d="M125.49,28.55c.13,3.34.19,5.24.19,5.72a14.84,14.84,0,0,1-.23,2.6,4.85,4.85,0,0,1-5.35,3.93,4.8,4.8,0,0,1-3.45-1.18,5.1,5.1,0,0,1-1.53-2.34,12.35,12.35,0,0,1-.36-2.58c0-.94.06-1.89.14-2.83l1.33-23.43a7.53,7.53,0,0,1,1.16-3.78,6.24,6.24,0,0,1,4.15-2.51,29.41,29.41,0,0,1,5.59-.57,20.46,20.46,0,0,1,3.4.27,12.68,12.68,0,0,1,4.69,1.73,9,9,0,0,1,3.23,3.49,11.54,11.54,0,0,1,1.15,5.43A14.79,14.79,0,0,1,133,25.33l6.84,10.33a3,3,0,0,1,.65,1.93,2.61,2.61,0,0,1-1.05,2.07,3.74,3.74,0,0,1-2.46.87,4.06,4.06,0,0,1-3.54-1.5Zm-.32-7.82q5.17-2.89,5.17-9.29a3.85,3.85,0,0,0-.42-2,2.41,2.41,0,0,0-1-.94,2.91,2.91,0,0,0-1.25-.26,9.53,9.53,0,0,0-3.08.47Z"/><path class="cls-6" d="M182.27,31l-.38,7.55a4.48,4.48,0,0,1-1,2.49,3.78,3.78,0,0,1-3.11,1.43,3.53,3.53,0,0,1-3.19-1.36,4.7,4.7,0,0,1-.9-2.56L173,9.75q-.09-2.17-.09-2.91a4.44,4.44,0,0,1,1.38-3.27,9.92,9.92,0,0,1,3.24-2.13A18.88,18.88,0,0,1,181.26.35,19.74,19.74,0,0,1,184.53,0a17.43,17.43,0,0,1,7,1.32,9.87,9.87,0,0,1,4.62,3.85,11.3,11.3,0,0,1,1.58,6.08,15.44,15.44,0,0,1-1.29,6.3,16.64,16.64,0,0,1-3.65,5.22,14.55,14.55,0,0,1-3.75,2.89l5.34,7.13a13,13,0,0,1,1.16,1.82,4.92,4.92,0,0,1,.56,2.35,3.36,3.36,0,0,1-1.38,2.79,5.54,5.54,0,0,1-3.53,1.08,5.9,5.9,0,0,1-3.85-1.17,7.39,7.39,0,0,1-2.11-2.62ZM184,7l-.93,12.56c.56-.37,1.12-.76,1.66-1.18a11.74,11.74,0,0,0,2.89-3.16,7.67,7.67,0,0,0,1.15-4.16A4.51,4.51,0,0,0,187.88,8a3.1,3.1,0,0,0-2.4-1A9,9,0,0,0,184,7Z"/><path class="cls-7" d="M215.85.44a13.89,13.89,0,0,1,6.9,1.64,13.17,13.17,0,0,1,4.65,4.36A19.24,19.24,0,0,1,230,12.58a32.14,32.14,0,0,1,.8,7.39,35.4,35.4,0,0,1-.89,8,25.43,25.43,0,0,1-2.74,7,16.28,16.28,0,0,1-4.78,5.22,11.78,11.78,0,0,1-6.92,2,11.46,11.46,0,0,1-5.86-1.47,14.09,14.09,0,0,1-4.22-3.7,21.53,21.53,0,0,1-2.75-4.82A27.3,27.3,0,0,1,201,27.05a27.87,27.87,0,0,1-.5-5.07,38.29,38.29,0,0,1,.41-5.54,29.06,29.06,0,0,1,1.36-5.61A18.64,18.64,0,0,1,205,5.76a13.47,13.47,0,0,1,4.44-3.83A13.28,13.28,0,0,1,215.85.44Zm-.43,34.7a3.49,3.49,0,0,0,2.12-1,10.86,10.86,0,0,0,2.31-3,19.57,19.57,0,0,0,1.79-4.74,22.18,22.18,0,0,0,.67-5.43,27.75,27.75,0,0,0-.68-6.51,9.2,9.2,0,0,0-1.77-4,3.24,3.24,0,0,0-2.45-1.22,4.47,4.47,0,0,0-2.59.77,7,7,0,0,0-2,2.3,14.72,14.72,0,0,0-1.48,3.61,26.08,26.08,0,0,0-.82,4.26,35.55,35.55,0,0,0-.25,4.1,26,26,0,0,0,.3,3.76,15.86,15.86,0,0,0,1,3.75,6.85,6.85,0,0,0,1.65,2.53A3.27,3.27,0,0,0,215.42,35.14Z"/><path class="cls-8" d="M249.66,7a3.25,3.25,0,0,0-1.83,1.09,10,10,0,0,0-1.88,3.5,27.73,27.73,0,0,0-1.25,5.5,47.29,47.29,0,0,0-.41,6.15,25.82,25.82,0,0,0,.4,4.55,15.36,15.36,0,0,0,1.2,4,7,7,0,0,0,1.77,2.49,3.33,3.33,0,0,0,2.19.79,2.05,2.05,0,0,0,.83-.15,2.73,2.73,0,0,0,.74-.52,7.78,7.78,0,0,0,.77-.83,11.49,11.49,0,0,1,1.64-1.63,4.09,4.09,0,0,1,2.72-.82,3.83,3.83,0,0,1,3,1.2,3.72,3.72,0,0,1,1.1,2.53,5.3,5.3,0,0,1-1.87,4,13,13,0,0,1-4.57,2.7,17.05,17.05,0,0,1-5.65.95,13.91,13.91,0,0,1-7.18-1.74,13.35,13.35,0,0,1-4.66-4.51,19.42,19.42,0,0,1-2.43-6.08,32.14,32.14,0,0,1-.72-6.87,37.71,37.71,0,0,1,.47-5.7,33.49,33.49,0,0,1,1.48-6,22.72,22.72,0,0,1,2.77-5.5,14.63,14.63,0,0,1,4.45-4.23A11.84,11.84,0,0,1,249.11.14a9,9,0,0,1,4.7,1.17,10.08,10.08,0,0,1,3.23,3,15.76,15.76,0,0,1,2.33,5.4,23.82,23.82,0,0,1,.86,5.64,6,6,0,0,1-.63,2.8,5,5,0,0,1-1.86,2,5.07,5.07,0,0,1-2.71.76,4.46,4.46,0,0,1-4-1.75,6.49,6.49,0,0,1-1.18-3.67c0-.85,0-1.88.08-3.08s.11-2.5.11-3.65S249.91,7,249.66,7Z"/><path class="cls-9" d="M275.37,16.07l3.76-10.19a13.84,13.84,0,0,1,2.2-4.22A5.11,5.11,0,0,1,285.59,0a7.36,7.36,0,0,1,3.65.89,3,3,0,0,1,1.58,2.82,6.06,6.06,0,0,1-.37,2.19,20.39,20.39,0,0,1-.91,2l-9.07,16.45,5.8,7.08c.36.44.74.93,1.14,1.49a10.42,10.42,0,0,1,1,1.82,5,5,0,0,1,.45,2.09,4.16,4.16,0,0,1-.33,1.49A3.74,3.74,0,0,1,287.13,40a5.35,5.35,0,0,1-3.07.79,5.8,5.8,0,0,1-3.54-1,7,7,0,0,1-1.91-2.18l-3.89-6.9-.22,7.88a5.12,5.12,0,0,1-.79,2.42c-.51.87-1.61,1.31-3.29,1.31a3.63,3.63,0,0,1-3-1,4.6,4.6,0,0,1-1-2.1,21.36,21.36,0,0,1-.23-2.25l-1.52-28c-.06-.67-.08-1.35-.08-2a11.81,11.81,0,0,1,.27-2.5A4.56,4.56,0,0,1,266.33,2,5.13,5.13,0,0,1,270,.9a6,6,0,0,1,3.69,1,4.43,4.43,0,0,1,1.68,2.22,9.27,9.27,0,0,1,.35,2.51c0,1,0,2.07-.11,3.05,0,.51-.06,1-.08,1.58Z"/><path class="cls-10" d="M63.54,65.74a9.19,9.19,0,0,0,.53,3.31,7.61,7.61,0,0,0,1.41,2.31,10.93,10.93,0,0,0,2,1.77c.77.54,1.58,1.06,2.43,1.57a34.21,34.21,0,0,1,3.52,2.35,11.41,11.41,0,0,1,2.8,3.15,8.51,8.51,0,0,1,1.12,4.5,10.07,10.07,0,0,1-1.52,5.51,10.22,10.22,0,0,1-4.28,3.71,14,14,0,0,1-6.13,1.32,13,13,0,0,1-5.31-1.16,13.39,13.39,0,0,1-4.41-3,5.74,5.74,0,0,1-1.8-4,4.23,4.23,0,0,1,1.24-3.12,4.37,4.37,0,0,1,3.22-1.24,5.26,5.26,0,0,1,2.66.63,6.38,6.38,0,0,1,1.89,1.61,11.63,11.63,0,0,1,1,1.49,6.83,6.83,0,0,0,.86,1.28,1.07,1.07,0,0,0,.72.44,3.15,3.15,0,0,0,1-.15,1.45,1.45,0,0,0,.7-.56A2.5,2.5,0,0,0,67.52,86a2.27,2.27,0,0,0-.45-1.37,6,6,0,0,0-1.38-1.28c-.61-.45-1.34-.93-2.17-1.46-1.06-.64-2.15-1.36-3.27-2.18a18.51,18.51,0,0,1-3.16-2.94,13.91,13.91,0,0,1-2.37-4,14.72,14.72,0,0,1-.9-5.38,20.15,20.15,0,0,1,.54-4.58,13.74,13.74,0,0,1,1.88-4.35A10.63,10.63,0,0,1,60,55a11.74,11.74,0,0,1,5.89-1.36c3.68.15,6.36,1.23,8,3.25a14.25,14.25,0,0,1,3,7.56A9.2,9.2,0,0,1,77,65.87a7.24,7.24,0,0,1-.31,2,4.12,4.12,0,0,1-1.46,2,4.93,4.93,0,0,1-3.16.91A5.05,5.05,0,0,1,69,69.89,3.68,3.68,0,0,1,67.53,68a7.67,7.67,0,0,1-.28-2.08c0-.62,0-1.27.08-1.94a15.56,15.56,0,0,0,.11-1.77,3.87,3.87,0,0,0-.12-1.06c-.09-.27-.17-.44-.26-.49a2.1,2.1,0,0,0-.63-.14,2.24,2.24,0,0,0-1.21.3,2.82,2.82,0,0,0-.89,1,5.72,5.72,0,0,0-.6,1.78A12.61,12.61,0,0,0,63.54,65.74Z"/><path class="cls-11" d="M96.45,59.77a3.25,3.25,0,0,0-1.83,1.09,10,10,0,0,0-1.88,3.5,27.73,27.73,0,0,0-1.25,5.5A47.29,47.29,0,0,0,91.08,76a25.82,25.82,0,0,0,.4,4.55,15.36,15.36,0,0,0,1.2,4A7,7,0,0,0,94.45,87a3.33,3.33,0,0,0,2.19.79,2.05,2.05,0,0,0,.83-.15,2.73,2.73,0,0,0,.74-.52A7.78,7.78,0,0,0,99,86.3a11.49,11.49,0,0,1,1.64-1.63,4.09,4.09,0,0,1,2.72-.82,3.84,3.84,0,0,1,3,1.2,3.72,3.72,0,0,1,1.1,2.53,5.3,5.3,0,0,1-1.87,4,13,13,0,0,1-4.57,2.7,17.07,17.07,0,0,1-5.66.95,13.9,13.9,0,0,1-7.17-1.74A13.35,13.35,0,0,1,83.47,89,19.42,19.42,0,0,1,81,82.88,32.14,32.14,0,0,1,80.32,76a37.71,37.71,0,0,1,.47-5.7,33.49,33.49,0,0,1,1.48-6A22.72,22.72,0,0,1,85,58.83a14.63,14.63,0,0,1,4.45-4.23,11.81,11.81,0,0,1,6.41-1.69,9,9,0,0,1,4.7,1.17,10.08,10.08,0,0,1,3.23,3,15.76,15.76,0,0,1,2.33,5.4,23.82,23.82,0,0,1,.86,5.64,6,6,0,0,1-.63,2.8,5,5,0,0,1-1.87,2,5,5,0,0,1-2.71.76,4.46,4.46,0,0,1-4-1.75,6.47,6.47,0,0,1-1.18-3.67c0-.85,0-1.88.08-3.08s.11-2.5.11-3.65S96.7,59.77,96.45,59.77Z"/><path class="cls-12" d="M122.16,66l-.92,21.65c0,.51-.08,1.09-.17,1.73a5.91,5.91,0,0,1-.9,2.21c-.5.83-1.53,1.24-3.07,1.24a4,4,0,0,1-2.77-.83,3.43,3.43,0,0,1-1.12-1.68,8.81,8.81,0,0,1-.23-1.68l-1.31-23.38-.16-2.53c-.07-1-.12-1.92-.13-2.89a13.62,13.62,0,0,1,.27-2.48,5.25,5.25,0,0,1,1.4-2.53,4.87,4.87,0,0,1,3.72-1.25,5.17,5.17,0,0,1,4,1.32,5.31,5.31,0,0,1,1.46,2.71,16.81,16.81,0,0,1,.23,2.67c0,1.23-.06,2.65-.17,4.25C122.21,65.12,122.18,65.61,122.16,66Z"/><path class="cls-13" d="M137.2,65.74a9.19,9.19,0,0,0,.53,3.31,7.39,7.39,0,0,0,1.4,2.31,11.27,11.27,0,0,0,2,1.77c.77.54,1.59,1.06,2.44,1.57a33,33,0,0,1,3.51,2.35,11.45,11.45,0,0,1,2.81,3.15A8.61,8.61,0,0,1,151,84.7a10,10,0,0,1-1.53,5.51,10.16,10.16,0,0,1-4.28,3.71,13.94,13.94,0,0,1-6.12,1.32,13.09,13.09,0,0,1-5.32-1.16,13.6,13.6,0,0,1-4.41-3,5.74,5.74,0,0,1-1.8-4,4.27,4.27,0,0,1,1.24-3.12,4.4,4.4,0,0,1,3.23-1.24,5.29,5.29,0,0,1,2.66.63,6.64,6.64,0,0,1,1.89,1.61,14.23,14.23,0,0,1,1,1.49,6.37,6.37,0,0,0,.86,1.28,1,1,0,0,0,.72.44,3,3,0,0,0,1-.15,1.47,1.47,0,0,0,.71-.56,2.5,2.5,0,0,0,.29-1.39,2.27,2.27,0,0,0-.45-1.37,6,6,0,0,0-1.38-1.28c-.62-.45-1.34-.93-2.18-1.46-1-.64-2.14-1.36-3.27-2.18a18.89,18.89,0,0,1-3.16-2.94,13.91,13.91,0,0,1-2.37-4,14.72,14.72,0,0,1-.9-5.38,20.18,20.18,0,0,1,.55-4.58,13.52,13.52,0,0,1,1.88-4.35A10.54,10.54,0,0,1,133.63,55a11.73,11.73,0,0,1,5.88-1.36q5.53.22,8,3.25a14.25,14.25,0,0,1,3,7.56,9.2,9.2,0,0,1,.11,1.39,6.91,6.91,0,0,1-.32,2,4.05,4.05,0,0,1-1.46,2,4.91,4.91,0,0,1-3.16.91,5,5,0,0,1-3.11-.86A3.63,3.63,0,0,1,141.19,68a7.68,7.68,0,0,1-.29-2.08c0-.62,0-1.27.09-1.94a15.5,15.5,0,0,0,.1-1.77,3.87,3.87,0,0,0-.12-1.06.88.88,0,0,0-.26-.49,2.09,2.09,0,0,0-.62-.14,2.27,2.27,0,0,0-1.22.3,2.81,2.81,0,0,0-.88,1,5.72,5.72,0,0,0-.6,1.78A11.63,11.63,0,0,0,137.2,65.74Z"/><path class="cls-14" d="M164.74,65.74a9.19,9.19,0,0,0,.53,3.31,7.39,7.39,0,0,0,1.4,2.31,11.27,11.27,0,0,0,2,1.77c.77.54,1.59,1.06,2.44,1.57a33,33,0,0,1,3.51,2.35,11.45,11.45,0,0,1,2.81,3.15,8.61,8.61,0,0,1,1.12,4.5,10,10,0,0,1-1.53,5.51,10.16,10.16,0,0,1-4.28,3.71,13.94,13.94,0,0,1-6.12,1.32,13.09,13.09,0,0,1-5.32-1.16,13.6,13.6,0,0,1-4.41-3,5.74,5.74,0,0,1-1.8-4,4.27,4.27,0,0,1,1.24-3.12,4.4,4.4,0,0,1,3.23-1.24,5.29,5.29,0,0,1,2.66.63,6.64,6.64,0,0,1,1.89,1.61,14.23,14.23,0,0,1,1,1.49,6.37,6.37,0,0,0,.86,1.28,1,1,0,0,0,.72.44,3,3,0,0,0,1-.15,1.47,1.47,0,0,0,.71-.56,2.5,2.5,0,0,0,.29-1.39,2.27,2.27,0,0,0-.45-1.37,6,6,0,0,0-1.38-1.28c-.62-.45-1.34-.93-2.18-1.46-1.05-.64-2.14-1.36-3.27-2.18a18.89,18.89,0,0,1-3.16-2.94,13.91,13.91,0,0,1-2.37-4,14.72,14.72,0,0,1-.9-5.38,20.18,20.18,0,0,1,.55-4.58,13.52,13.52,0,0,1,1.88-4.35A10.54,10.54,0,0,1,161.17,55a11.73,11.73,0,0,1,5.88-1.36q5.53.22,8,3.25a14.25,14.25,0,0,1,3,7.56,9.2,9.2,0,0,1,.11,1.39,6.91,6.91,0,0,1-.32,2,4.05,4.05,0,0,1-1.46,2,4.91,4.91,0,0,1-3.16.91,5,5,0,0,1-3.11-.86A3.63,3.63,0,0,1,168.73,68a7.68,7.68,0,0,1-.29-2.08c0-.62,0-1.27.09-1.94a15.5,15.5,0,0,0,.1-1.77,3.87,3.87,0,0,0-.12-1.06.88.88,0,0,0-.26-.49,2.09,2.09,0,0,0-.62-.14,2.27,2.27,0,0,0-1.22.3,2.81,2.81,0,0,0-.88,1,5.72,5.72,0,0,0-.6,1.78A11.63,11.63,0,0,0,164.74,65.74Z"/><path class="cls-15" d="M196.85,53.21a13.89,13.89,0,0,1,6.9,1.64,13.17,13.17,0,0,1,4.65,4.36A19.2,19.2,0,0,1,211,65.36a32,32,0,0,1,.8,7.38,35.4,35.4,0,0,1-.89,8,25.43,25.43,0,0,1-2.74,7A16.28,16.28,0,0,1,203.34,93a11.78,11.78,0,0,1-6.92,2,11.46,11.46,0,0,1-5.86-1.47,14.09,14.09,0,0,1-4.22-3.7,21.53,21.53,0,0,1-2.75-4.82A27.3,27.3,0,0,1,182,79.82a27.87,27.87,0,0,1-.5-5.07,38.29,38.29,0,0,1,.41-5.54,29.06,29.06,0,0,1,1.36-5.61A18.64,18.64,0,0,1,186,58.53a13.33,13.33,0,0,1,4.44-3.82A13.17,13.17,0,0,1,196.85,53.21Zm-.43,34.7a3.49,3.49,0,0,0,2.12-1,10.53,10.53,0,0,0,2.3-3,19.17,19.17,0,0,0,1.8-4.74,22.18,22.18,0,0,0,.67-5.43,27.75,27.75,0,0,0-.68-6.51,9.43,9.43,0,0,0-1.77-4A3.26,3.26,0,0,0,198.41,62a4.47,4.47,0,0,0-2.59.77,7,7,0,0,0-2,2.3,14.72,14.72,0,0,0-1.48,3.61,26.08,26.08,0,0,0-.82,4.26,35.55,35.55,0,0,0-.25,4.1,26,26,0,0,0,.3,3.76,15.86,15.86,0,0,0,1,3.75,6.77,6.77,0,0,0,1.65,2.53A3.25,3.25,0,0,0,196.42,87.91Z"/><path class="cls-16" d="M225.62,83.74l-.38,7.55a4.53,4.53,0,0,1-1,2.49,3.82,3.82,0,0,1-3.12,1.43,3.53,3.53,0,0,1-3.19-1.36,4.7,4.7,0,0,1-.9-2.56l-.65-28.77c-.06-1.45-.08-2.42-.08-2.91a4.43,4.43,0,0,1,1.37-3.27,9.92,9.92,0,0,1,3.24-2.13,19.08,19.08,0,0,1,3.72-1.09,19.94,19.94,0,0,1,3.27-.32,17.43,17.43,0,0,1,7,1.32A9.87,9.87,0,0,1,239.51,58a11.3,11.3,0,0,1,1.58,6.08,15.44,15.44,0,0,1-1.29,6.3,16.48,16.48,0,0,1-3.65,5.22,14.38,14.38,0,0,1-3.75,2.89l5.34,7.13a12.18,12.18,0,0,1,1.16,1.82,4.94,4.94,0,0,1,.56,2.35,3.36,3.36,0,0,1-1.38,2.79,5.52,5.52,0,0,1-3.53,1.08,5.9,5.9,0,0,1-3.85-1.17,7.5,7.5,0,0,1-2.11-2.62Zm1.77-23.94-.93,12.56c.57-.37,1.12-.76,1.67-1.18A12,12,0,0,0,231,68a7.64,7.64,0,0,0,1.15-4.17,4.51,4.51,0,0,0-.93-3.12,3.1,3.1,0,0,0-2.4-1A9.18,9.18,0,0,0,227.39,59.8Z"/><path class="cls-17" d="M254.63,65.74a9.19,9.19,0,0,0,.53,3.31,7.39,7.39,0,0,0,1.4,2.31,11.27,11.27,0,0,0,2,1.77c.77.54,1.59,1.06,2.44,1.57a33,33,0,0,1,3.51,2.35,11.29,11.29,0,0,1,2.81,3.15,8.61,8.61,0,0,1,1.12,4.5,10,10,0,0,1-1.53,5.51,10.19,10.19,0,0,1-4.27,3.71,14,14,0,0,1-6.13,1.32,13.09,13.09,0,0,1-5.32-1.16,13.6,13.6,0,0,1-4.41-3,5.74,5.74,0,0,1-1.8-4,4.27,4.27,0,0,1,1.24-3.12,4.41,4.41,0,0,1,3.23-1.24,5.29,5.29,0,0,1,2.66.63A6.64,6.64,0,0,1,254,84.89a12.8,12.8,0,0,1,1,1.49,6.83,6.83,0,0,0,.86,1.28,1,1,0,0,0,.72.44,3,3,0,0,0,1-.15,1.47,1.47,0,0,0,.71-.56,2.5,2.5,0,0,0,.29-1.39,2.27,2.27,0,0,0-.45-1.37,6,6,0,0,0-1.38-1.28c-.62-.45-1.34-.93-2.18-1.46-1-.64-2.14-1.36-3.27-2.18a18.89,18.89,0,0,1-3.16-2.94,13.91,13.91,0,0,1-2.37-4,14.94,14.94,0,0,1-.89-5.38,20.15,20.15,0,0,1,.54-4.58,13.52,13.52,0,0,1,1.88-4.35A10.54,10.54,0,0,1,251.06,55,11.74,11.74,0,0,1,257,53.67c3.68.15,6.36,1.23,8,3.25a14.25,14.25,0,0,1,3,7.56,9.2,9.2,0,0,1,.11,1.39,6.91,6.91,0,0,1-.32,2,4.09,4.09,0,0,1-1.45,2,5,5,0,0,1-3.16.91,5.05,5.05,0,0,1-3.12-.86A3.63,3.63,0,0,1,258.62,68a7.68,7.68,0,0,1-.29-2.08c0-.62,0-1.27.09-1.94a15.56,15.56,0,0,0,.11-1.77,3.82,3.82,0,0,0-.13-1.06.88.88,0,0,0-.26-.49,2.09,2.09,0,0,0-.62-.14,2.27,2.27,0,0,0-1.22.3,2.81,2.81,0,0,0-.88,1,5.72,5.72,0,0,0-.6,1.78A11.63,11.63,0,0,0,254.63,65.74Z"/></g></g></svg>