<svg xmlns="http://www.w3.org/2000/svg" viewBox="0 0 535.09 42.53"><defs><style>.cls-1{fill:#242498;}</style></defs><title>logo</title><g id="Capa_2" data-name="Capa 2"><g id="Capa_1-2" data-name="Capa 1"><path class="cls-1" d="M5.29,40.82q-2.58,0-3.36-1.38a5.4,5.4,0,0,1-.8-2.62l-1-25.71C0,9.8,0,8.66,0,7.7A6.21,6.21,0,0,1,1.44,3.45,7,7,0,0,1,5.58,1.29,33,33,0,0,1,11.94.76a13.7,13.7,0,0,1,6.28,1.4A10.21,10.21,0,0,1,22.47,6,11.11,11.11,0,0,1,24,11.79a17.51,17.51,0,0,1-2,8.3,18.77,18.77,0,0,1-5.53,6.35,18.76,18.76,0,0,1-6.68,3.31l-.41,7a9.46,9.46,0,0,1-.21,1.51A3.79,3.79,0,0,1,8,40,3.78,3.78,0,0,1,5.29,40.82Zm5.78-33L10.33,21.2q5.28-2,5.29-9.67a5.39,5.39,0,0,0-.4-2.17A2.73,2.73,0,0,0,14.12,8a4.69,4.69,0,0,0-2.18-.41,2.8,2.8,0,0,0-.87.17Z"/><path class="cls-1" d="M42.15,36.55A13,13,0,0,1,36.4,38a9.63,9.63,0,0,1-4.79-1.2,8.76,8.76,0,0,1-3.39-3.2A8.42,8.42,0,0,1,27,29.11a9.18,9.18,0,0,1,3.23-7.2A12.12,12.12,0,0,1,38.55,19a8.72,8.72,0,0,1,3.38.68,51.26,51.26,0,0,0-.71-6.88,10.58,10.58,0,0,0-1.21-4A2,2,0,0,0,38.47,8a.92.92,0,0,0-.8.56,4.3,4.3,0,0,0-.31,2,8.54,8.54,0,0,0,.13,1.82,20.56,20.56,0,0,1,.14,2.07,4.28,4.28,0,0,1-.91,2.82c-.61.68-1.85,1-3.71,1a6.3,6.3,0,0,1-3.9-1,3.52,3.52,0,0,1-1.33-3,13.66,13.66,0,0,1,.87-4.55A13.49,13.49,0,0,1,31,5.47a10,10,0,0,1,3.2-2.71,9.69,9.69,0,0,1,4.7-1.08A10.37,10.37,0,0,1,45.2,3.53a13.28,13.28,0,0,1,3.91,4.58,26.21,26.21,0,0,1,2.15,6,52.33,52.33,0,0,1,1.06,6.71q.3,3.46.39,6.79c0,2.21.06,4.24.06,6.07a15.51,15.51,0,0,1-.23,2.64A5.82,5.82,0,0,1,51.21,39a4.56,4.56,0,0,1-3.67,1.32C45.13,40.31,43.33,39,42.15,36.55Zm0-10.13a7.7,7.7,0,0,0-2.56-.4c-1.4.07-2.1,1-2.1,2.75,0,1.47.57,2.21,1.66,2.21a5.93,5.93,0,0,0,3-1.39Z"/><path class="cls-1" d="M64.08,1a28.06,28.06,0,0,1,5.64-.6,22,22,0,0,1,3.43.27A13,13,0,0,1,77.89,2.4,9.08,9.08,0,0,1,81.14,6a12.18,12.18,0,0,1,1.16,5.57,15.66,15.66,0,0,1-2.07,8,18.66,18.66,0,0,1-5.66,6,19.07,19.07,0,0,1-6.56,3v1c.13,1.6.19,3,.19,4.22A16.32,16.32,0,0,1,68,36.52a5.59,5.59,0,0,1-1.47,2.71,5.21,5.21,0,0,1-4,1.32,4.81,4.81,0,0,1-3.71-1.25,5.29,5.29,0,0,1-1.4-2.53,12.14,12.14,0,0,1-.26-2.48,25,25,0,0,1,.11-2.89l1.36-24a8.21,8.21,0,0,1,1.17-3.88A6.19,6.19,0,0,1,64.08,1Zm3.51,20.29a9.82,9.82,0,0,0,4-4A11.72,11.72,0,0,0,73,11.65a3.88,3.88,0,0,0-.44-2,2.53,2.53,0,0,0-1-1,2.83,2.83,0,0,0-1.25-.26A7.56,7.56,0,0,0,67.21,9Z"/><path class="cls-1" d="M97.56,29.79c1,1.89,2.08,2.84,3.32,2.84a3.45,3.45,0,0,0,3.27-1.82A3,3,0,0,1,106.76,29a4,4,0,0,1,3,1.11,3.31,3.31,0,0,1,1.09,2.33,4.44,4.44,0,0,1-1.37,3.22,10.6,10.6,0,0,1-3.22,2.2A17.56,17.56,0,0,1,102.54,39a16.54,16.54,0,0,1-3.21.37,13.89,13.89,0,0,1-6.73-1.51A11.75,11.75,0,0,1,88.24,34,16.09,16.09,0,0,1,86,28.66a26.87,26.87,0,0,1-.67-6.06,43.24,43.24,0,0,1,.32-5.21,29,29,0,0,1,1.13-5.45,18.73,18.73,0,0,1,2.35-5A12,12,0,0,1,99.65,1.47q10.08,0,10.35,15.31a6.42,6.42,0,0,1-2.61,5.67,7.34,7.34,0,0,1-4.25,1.14,13.1,13.1,0,0,1-1.66-.11l-5.42-.65A14.82,14.82,0,0,0,97.56,29.79ZM99.41,7.7c-.11,0-.33.21-.67.61a6.93,6.93,0,0,0-1,2.28,24.6,24.6,0,0,0-.83,3.69c-.21,1.35-.32,2.13-.34,2.33h5.2C101.73,10.67,101,7.7,99.41,7.7Z"/><path class="cls-1" d="M125.5,28.57c.13,3.34.19,5.24.19,5.72a15.14,15.14,0,0,1-.23,2.6,4.85,4.85,0,0,1-5.35,3.93,4.79,4.79,0,0,1-3.45-1.18,5,5,0,0,1-1.53-2.34,11.8,11.8,0,0,1-.36-2.58c0-.94.06-1.89.14-2.83l1.33-23.43a7.49,7.49,0,0,1,1.16-3.78,6.21,6.21,0,0,1,4.15-2.51,29.12,29.12,0,0,1,5.59-.57,21.64,21.64,0,0,1,3.4.27,12.79,12.79,0,0,1,4.69,1.73,9,9,0,0,1,3.23,3.49,11.6,11.6,0,0,1,1.15,5.43A14.83,14.83,0,0,1,133,25.35l6.84,10.33a3.06,3.06,0,0,1,.65,1.93,2.63,2.63,0,0,1-1.05,2.07,3.71,3.71,0,0,1-2.46.87,4,4,0,0,1-3.54-1.5Zm-.32-7.82q5.16-2.88,5.17-9.29a4,4,0,0,0-.42-2,2.51,2.51,0,0,0-1-.94,2.86,2.86,0,0,0-1.25-.26,9.71,9.71,0,0,0-3.08.47Z"/><path class="cls-1" d="M182.28,31l-.38,7.55a4.56,4.56,0,0,1-1,2.49,3.77,3.77,0,0,1-3.11,1.43,3.52,3.52,0,0,1-3.19-1.36,4.61,4.61,0,0,1-.9-2.56L173,9.77q-.09-2.16-.09-2.91a4.41,4.41,0,0,1,1.38-3.27,10,10,0,0,1,3.24-2.13A19.23,19.23,0,0,1,181.27.37,19.82,19.82,0,0,1,184.54,0a17.5,17.5,0,0,1,7,1.32,9.93,9.93,0,0,1,4.62,3.85,11.4,11.4,0,0,1,1.58,6.08,15.65,15.65,0,0,1-1.29,6.3,16.68,16.68,0,0,1-3.65,5.22,14.63,14.63,0,0,1-3.75,2.89l5.34,7.13a14.38,14.38,0,0,1,1.16,1.82,5.05,5.05,0,0,1,.56,2.35,3.4,3.4,0,0,1-1.38,2.79,5.54,5.54,0,0,1-3.53,1.08,5.89,5.89,0,0,1-3.85-1.17,7.27,7.27,0,0,1-2.11-2.62ZM184,7l-.93,12.56c.56-.37,1.12-.76,1.66-1.18a12.1,12.1,0,0,0,2.89-3.16,7.73,7.73,0,0,0,1.15-4.16A4.6,4.6,0,0,0,187.89,8a3.13,3.13,0,0,0-2.4-1A9.14,9.14,0,0,0,184,7Z"/><path class="cls-1" d="M215.86.46a13.94,13.94,0,0,1,6.9,1.64,13.22,13.22,0,0,1,4.65,4.36A19.6,19.6,0,0,1,230,12.6a32.3,32.3,0,0,1,.8,7.39,35.87,35.87,0,0,1-.89,8,25.76,25.76,0,0,1-2.74,7,16.47,16.47,0,0,1-4.78,5.22,11.85,11.85,0,0,1-6.92,2,11.43,11.43,0,0,1-5.86-1.47A14,14,0,0,1,205.4,37a21.31,21.31,0,0,1-2.75-4.82A26.61,26.61,0,0,1,201,27.07a27,27,0,0,1-.5-5.07,38.15,38.15,0,0,1,.41-5.54,28.52,28.52,0,0,1,1.36-5.61A18.55,18.55,0,0,1,205,5.78,13,13,0,0,1,215.86.46Zm-.43,34.7a3.48,3.48,0,0,0,2.12-1,10.89,10.89,0,0,0,2.31-3,19.53,19.53,0,0,0,1.79-4.74,22.55,22.55,0,0,0,.67-5.43,28,28,0,0,0-.68-6.51,9.26,9.26,0,0,0-1.77-4,3.27,3.27,0,0,0-2.45-1.22,4.48,4.48,0,0,0-2.59.77,7,7,0,0,0-2,2.3,14.37,14.37,0,0,0-1.48,3.61,24.84,24.84,0,0,0-.82,4.26,33.06,33.06,0,0,0-.25,4.1,23.64,23.64,0,0,0,.3,3.76,15.17,15.17,0,0,0,1,3.75,6.65,6.65,0,0,0,1.65,2.53,3.23,3.23,0,0,0,2.2.82Z"/><path class="cls-1" d="M249.67,7a3.24,3.24,0,0,0-1.83,1.09,9.82,9.82,0,0,0-1.88,3.5,26.72,26.72,0,0,0-1.25,5.5,46.94,46.94,0,0,0-.41,6.15,24.75,24.75,0,0,0,.4,4.55,15.13,15.13,0,0,0,1.2,4,7,7,0,0,0,1.77,2.49,3.3,3.3,0,0,0,2.19.79,2,2,0,0,0,.83-.15,2.68,2.68,0,0,0,.74-.52,8.69,8.69,0,0,0,.77-.83A11.49,11.49,0,0,1,253.84,32a4.08,4.08,0,0,1,2.72-.82,3.87,3.87,0,0,1,3,1.2,3.76,3.76,0,0,1,1.1,2.53,5.35,5.35,0,0,1-1.87,4,12.93,12.93,0,0,1-4.57,2.7,17,17,0,0,1-5.65,1,13.84,13.84,0,0,1-7.18-1.74,13.24,13.24,0,0,1-4.66-4.51,19.33,19.33,0,0,1-2.43-6.08,31.75,31.75,0,0,1-.72-6.87,37.57,37.57,0,0,1,.47-5.7,32.67,32.67,0,0,1,1.48-6,22.72,22.72,0,0,1,2.77-5.5,14.49,14.49,0,0,1,4.45-4.23A11.79,11.79,0,0,1,249.12.16a9,9,0,0,1,4.7,1.17,10.29,10.29,0,0,1,3.23,3,16.13,16.13,0,0,1,2.33,5.4,23.91,23.91,0,0,1,.86,5.64,6,6,0,0,1-.63,2.8A5.12,5.12,0,0,1,255,20.93a4.44,4.44,0,0,1-4-1.75,6.41,6.41,0,0,1-1.18-3.67c0-.85,0-1.88.08-3.08s.11-2.5.11-3.65S249.92,7,249.67,7Z"/><path class="cls-1" d="M275.38,16.09,279.14,5.9a13.61,13.61,0,0,1,2.2-4.22A5.11,5.11,0,0,1,285.6,0a7.39,7.39,0,0,1,3.65.89,3,3,0,0,1,1.58,2.82,6.26,6.26,0,0,1-.37,2.19c-.27.68-.58,1.35-.91,2l-9.07,16.45,5.8,7.08c.36.44.74.93,1.14,1.49a11.07,11.07,0,0,1,1,1.82,5.2,5.2,0,0,1,.45,2.09,4.24,4.24,0,0,1-.33,1.49,3.76,3.76,0,0,1-1.4,1.68,5.35,5.35,0,0,1-3.07.79,5.78,5.78,0,0,1-3.54-1,6.77,6.77,0,0,1-1.91-2.18l-3.89-6.9-.22,7.88a5.21,5.21,0,0,1-.79,2.42c-.51.87-1.61,1.31-3.29,1.31a3.62,3.62,0,0,1-3-1,4.46,4.46,0,0,1-1-2.1A18.64,18.64,0,0,1,266.2,37L264.68,9c-.06-.67-.08-1.35-.08-2a11.67,11.67,0,0,1,.27-2.5A4.54,4.54,0,0,1,266.34,2,5.11,5.11,0,0,1,270,.92a6,6,0,0,1,3.69,1,4.48,4.48,0,0,1,1.68,2.22,9.68,9.68,0,0,1,.35,2.51,28.08,28.08,0,0,1-.11,3c0,.51-.06,1-.08,1.58Z"/><path class="cls-1" d="M330.19,13a9.08,9.08,0,0,0,.53,3.31,7.71,7.71,0,0,0,1.41,2.31,10.53,10.53,0,0,0,2,1.77c.77.54,1.58,1.06,2.43,1.57a34.76,34.76,0,0,1,3.52,2.35,11.54,11.54,0,0,1,2.8,3.15,8.56,8.56,0,0,1,1.12,4.5,10,10,0,0,1-1.52,5.51,10.19,10.19,0,0,1-4.28,3.71,14,14,0,0,1-6.13,1.32,13,13,0,0,1-5.31-1.16,13.19,13.19,0,0,1-4.41-3,5.73,5.73,0,0,1-1.8-4,4.25,4.25,0,0,1,1.24-3.12A4.42,4.42,0,0,1,325,29.94a5.25,5.25,0,0,1,2.66.63,6.5,6.5,0,0,1,1.89,1.61,11.4,11.4,0,0,1,1,1.49,7,7,0,0,0,.86,1.28,1.06,1.06,0,0,0,.72.44,2.82,2.82,0,0,0,1-.15,1.43,1.43,0,0,0,.7-.56,2.48,2.48,0,0,0,.33-1.46,2.34,2.34,0,0,0-.45-1.37,6.22,6.22,0,0,0-1.38-1.28c-.61-.45-1.34-.93-2.17-1.46-1.06-.64-2.15-1.36-3.27-2.18A18.34,18.34,0,0,1,323.74,24a13.83,13.83,0,0,1-2.37-4,14.7,14.7,0,0,1-.9-5.38A20.19,20.19,0,0,1,321,10a13.81,13.81,0,0,1,1.88-4.35,10.58,10.58,0,0,1,3.76-3.46A11.72,11.72,0,0,1,332.54.86c3.68.15,6.36,1.23,8,3.25a14.25,14.25,0,0,1,3,7.56,9.7,9.7,0,0,1,.11,1.42,7.13,7.13,0,0,1-.31,2,4.12,4.12,0,0,1-1.46,2,4.89,4.89,0,0,1-3.16.91,5,5,0,0,1-3.07-.89,3.68,3.68,0,0,1-1.47-1.89,7.62,7.62,0,0,1-.28-2.08A16.15,16.15,0,0,1,334,11.2a14.89,14.89,0,0,0,.11-1.77A3.84,3.84,0,0,0,334,8.37c-.09-.27-.17-.44-.26-.49a2.22,2.22,0,0,0-.63-.14,2.34,2.34,0,0,0-1.21.3A2.85,2.85,0,0,0,331,9a5.67,5.67,0,0,0-.6,1.78A12.89,12.89,0,0,0,330.19,13Z"/><path class="cls-1" d="M363.1,7a3.24,3.24,0,0,0-1.83,1.09,10.15,10.15,0,0,0-1.88,3.5,28.09,28.09,0,0,0-1.25,5.5,46.79,46.79,0,0,0-.41,6.14,25.66,25.66,0,0,0,.4,4.55,15.51,15.51,0,0,0,1.2,4,6.94,6.94,0,0,0,1.77,2.45,3.31,3.31,0,0,0,2.19.79,2,2,0,0,0,.83-.15,2.68,2.68,0,0,0,.74-.52,7.65,7.65,0,0,0,.79-.82,12,12,0,0,1,1.64-1.63,4.08,4.08,0,0,1,2.72-.82,3.84,3.84,0,0,1,3,1.2,3.72,3.72,0,0,1,1.1,2.53,5.29,5.29,0,0,1-1.87,4,12.84,12.84,0,0,1-4.57,2.7,16.78,16.78,0,0,1-5.66,1,13.83,13.83,0,0,1-7.17-1.74,13.27,13.27,0,0,1-4.72-4.49,19.3,19.3,0,0,1-2.47-6.12,32.44,32.44,0,0,1-.68-6.88,37.57,37.57,0,0,1,.47-5.7,33.5,33.5,0,0,1,1.48-6,22.75,22.75,0,0,1,2.73-5.47,14.61,14.61,0,0,1,4.45-4.23A11.85,11.85,0,0,1,362.51.13a9.1,9.1,0,0,1,4.7,1.17,10.18,10.18,0,0,1,3.23,3,15.74,15.74,0,0,1,2.33,5.4,24,24,0,0,1,.86,5.64,6,6,0,0,1-.63,2.8,5.15,5.15,0,0,1-4.58,2.76,4.45,4.45,0,0,1-4-1.75,6.41,6.41,0,0,1-1.18-3.67c0-.85,0-1.88.08-3.08s.11-2.5.11-3.65S363.35,7,363.1,7Z"/><path class="cls-1" d="M388.81,13.22l-.92,21.65a13.07,13.07,0,0,1-.17,1.73,5.93,5.93,0,0,1-.9,2.21c-.5.83-1.53,1.24-3.07,1.24a4,4,0,0,1-2.77-.83,3.45,3.45,0,0,1-1.12-1.68,8.6,8.6,0,0,1-.23-1.68l-1.31-23.38L378.16,10C378.09,9,378,8,378,7.06a13,13,0,0,1,.27-2.48,5.29,5.29,0,0,1,1.4-2.53A4.88,4.88,0,0,1,383.42.8a5.16,5.16,0,0,1,4,1.32,5.38,5.38,0,0,1,1.46,2.71,17.19,17.19,0,0,1,.23,2.67c0,1.23-.06,2.65-.17,4.25C388.86,12.34,388.83,12.83,388.81,13.22Z"/><path class="cls-1" d="M403.85,13a9.08,9.08,0,0,0,.53,3.31,7.37,7.37,0,0,0,1.4,2.31,11.22,11.22,0,0,0,2,1.77c.77.54,1.59,1.06,2.44,1.57a34.62,34.62,0,0,1,3.51,2.35,11.58,11.58,0,0,1,2.81,3.15,8.64,8.64,0,0,1,1.11,4.5,9.93,9.93,0,0,1-1.53,5.51,10.12,10.12,0,0,1-4.28,3.71,13.91,13.91,0,0,1-6.12,1.32,13,13,0,0,1-5.32-1.16,13.7,13.7,0,0,1-4.41-3,5.73,5.73,0,0,1-1.8-4,4.29,4.29,0,0,1,1.24-3.12,4.45,4.45,0,0,1,3.23-1.24,5.36,5.36,0,0,1,2.66.63,6.66,6.66,0,0,1,1.89,1.61,16.14,16.14,0,0,1,1,1.49,6.11,6.11,0,0,0,.86,1.28,1,1,0,0,0,.72.44,2.82,2.82,0,0,0,1-.15,1.4,1.4,0,0,0,.71-.56,2.48,2.48,0,0,0,.29-1.39,2.34,2.34,0,0,0-.45-1.37A6.22,6.22,0,0,0,406,30.64c-.62-.45-1.34-.93-2.18-1.46-1-.64-2.14-1.36-3.27-2.18a18.72,18.72,0,0,1-3.16-2.94,13.83,13.83,0,0,1-2.37-4,14.7,14.7,0,0,1-.9-5.38,20.2,20.2,0,0,1,.55-4.58,13.58,13.58,0,0,1,1.88-4.35,10.55,10.55,0,0,1,3.77-3.53A11.78,11.78,0,0,1,406.16.86c3.69.15,6.35,1.23,8,3.25a14.25,14.25,0,0,1,3,7.56,9.3,9.3,0,0,1,.11,1.39,7.09,7.09,0,0,1-.32,2,4.07,4.07,0,0,1-1.46,2,6,6,0,0,1-6.27.05,3.59,3.59,0,0,1-1.38-1.89,7.63,7.63,0,0,1-.29-2.08,14.36,14.36,0,0,1,.09-1.94,14.88,14.88,0,0,0,.1-1.77,3.84,3.84,0,0,0-.12-1.06.87.87,0,0,0-.26-.49,2.23,2.23,0,0,0-.62-.14,2.35,2.35,0,0,0-1.22.3,2.82,2.82,0,0,0-.88,1,5.67,5.67,0,0,0-.6,1.78A11.91,11.91,0,0,0,403.85,13Z"/><path class="cls-1" d="M431.39,13a9.08,9.08,0,0,0,.53,3.31,7.37,7.37,0,0,0,1.4,2.31,11.22,11.22,0,0,0,2,1.77c.77.54,1.59,1.06,2.44,1.57a34.62,34.62,0,0,1,3.51,2.35,11.58,11.58,0,0,1,2.81,3.15,8.56,8.56,0,0,1,1.12,4.5,9.93,9.93,0,0,1-1.53,5.51,10.12,10.12,0,0,1-4.28,3.71,13.91,13.91,0,0,1-6.12,1.32A13,13,0,0,1,428,41.3a13.7,13.7,0,0,1-4.41-3,5.73,5.73,0,0,1-1.8-4A4.29,4.29,0,0,1,423,31.18a4.45,4.45,0,0,1,3.23-1.24,5.36,5.36,0,0,1,2.66.63,6.66,6.66,0,0,1,1.89,1.61,16.14,16.14,0,0,1,1,1.49,6.11,6.11,0,0,0,.86,1.28,1,1,0,0,0,.72.44,2.82,2.82,0,0,0,1-.15,1.4,1.4,0,0,0,.71-.56,2.48,2.48,0,0,0,.29-1.39,2.34,2.34,0,0,0-.45-1.37,6.22,6.22,0,0,0-1.38-1.28c-.62-.45-1.34-.93-2.18-1.46-1.05-.64-2.14-1.36-3.27-2.18a18.72,18.72,0,0,1-3.16-2.94,13.83,13.83,0,0,1-2.37-4,14.7,14.7,0,0,1-.9-5.38,20.2,20.2,0,0,1,.55-4.58,13.58,13.58,0,0,1,1.88-4.35,10.52,10.52,0,0,1,3.76-3.53A11.78,11.78,0,0,1,433.7.86c3.69.15,6.35,1.23,8,3.25a14.25,14.25,0,0,1,3,7.56,9.3,9.3,0,0,1,.11,1.39,7.09,7.09,0,0,1-.32,2,4.07,4.07,0,0,1-1.46,2,6,6,0,0,1-6.27.05,3.59,3.59,0,0,1-1.38-1.89,7.63,7.63,0,0,1-.29-2.08,14.36,14.36,0,0,1,.09-1.94,14.88,14.88,0,0,0,.1-1.77,3.84,3.84,0,0,0-.12-1.06.87.87,0,0,0-.26-.49,2.23,2.23,0,0,0-.62-.14,2.35,2.35,0,0,0-1.22.3,2.82,2.82,0,0,0-.88,1,5.67,5.67,0,0,0-.6,1.78A11.91,11.91,0,0,0,431.39,13Z"/><path class="cls-1" d="M463.5.43a13.94,13.94,0,0,1,6.9,1.64,13.22,13.22,0,0,1,4.65,4.36,19.29,19.29,0,0,1,2.6,6.15,32.16,32.16,0,0,1,.8,7.38,35.29,35.29,0,0,1-.89,8,25.44,25.44,0,0,1-2.74,7A16.21,16.21,0,0,1,470,40.22a11.74,11.74,0,0,1-6.92,2,11.35,11.35,0,0,1-5.86-1.47,14,14,0,0,1-4.22-3.7,21.31,21.31,0,0,1-2.75-4.82A27.55,27.55,0,0,1,448.65,27a27.84,27.84,0,0,1-.5-5.07,38.15,38.15,0,0,1,.41-5.54,29.24,29.24,0,0,1,1.36-5.61,18.55,18.55,0,0,1,2.73-5.07,13.39,13.39,0,0,1,4.44-3.82A13.24,13.24,0,0,1,463.5.43Zm-.43,34.7a3.48,3.48,0,0,0,2.12-1,10.53,10.53,0,0,0,2.3-3,19,19,0,0,0,1.8-4.74A22.06,22.06,0,0,0,470,21a28,28,0,0,0-.68-6.51,9.43,9.43,0,0,0-1.77-4,3.26,3.26,0,0,0-2.45-1.23,4.58,4.58,0,0,0-2.59.77,7,7,0,0,0-2,2.3A14.92,14.92,0,0,0,459,15.9a25.84,25.84,0,0,0-.82,4.26,35.11,35.11,0,0,0-.25,4.1,26.23,26.23,0,0,0,.3,3.76,15.62,15.62,0,0,0,1,3.75,6.77,6.77,0,0,0,1.65,2.53,3.24,3.24,0,0,0,2.2.83Z"/><path class="cls-1" d="M492.27,31l-.38,7.55a4.48,4.48,0,0,1-1,2.49,3.79,3.79,0,0,1-3.12,1.43,3.52,3.52,0,0,1-3.19-1.36,4.61,4.61,0,0,1-.9-2.56L483,9.74C483,8.29,483,7.32,483,6.83a4.43,4.43,0,0,1,1.37-3.27,10,10,0,0,1,3.24-2.13A19.34,19.34,0,0,1,491.28.34,21.06,21.06,0,0,1,494.55,0a17.67,17.67,0,0,1,7,1.32,9.87,9.87,0,0,1,4.61,3.88,11.31,11.31,0,0,1,1.58,6.08,15.32,15.32,0,0,1-1.29,6.3,16.56,16.56,0,0,1-3.65,5.22,14.25,14.25,0,0,1-3.75,2.89l5.34,7.13a11.93,11.93,0,0,1,1.16,1.82,5,5,0,0,1,.56,2.35,3.37,3.37,0,0,1-1.38,2.79,5.46,5.46,0,0,1-3.53,1.08,5.86,5.86,0,0,1-3.85-1.17,7.57,7.57,0,0,1-2.11-2.62ZM494,7l-.93,12.56c.57-.37,1.12-.76,1.67-1.18a11.94,11.94,0,0,0,2.87-3.18,7.59,7.59,0,0,0,1.15-4.17,4.5,4.5,0,0,0-.93-3.12,3.1,3.1,0,0,0-2.4-1A11.32,11.32,0,0,0,494,7Z"/><path class="cls-1" d="M521.28,13a9.08,9.08,0,0,0,.53,3.31,7.37,7.37,0,0,0,1.4,2.31,11.22,11.22,0,0,0,2,1.77c.77.54,1.59,1.06,2.44,1.57a34.62,34.62,0,0,1,3.51,2.35A11.42,11.42,0,0,1,534,27.42a8.56,8.56,0,0,1,1.12,4.5,9.93,9.93,0,0,1-1.53,5.51,10.16,10.16,0,0,1-4.27,3.71,14,14,0,0,1-6.13,1.32,13,13,0,0,1-5.32-1.16,13.7,13.7,0,0,1-4.41-3,5.73,5.73,0,0,1-1.8-4,4.29,4.29,0,0,1,1.24-3.12,4.45,4.45,0,0,1,3.23-1.24,5.36,5.36,0,0,1,2.66.63,6.7,6.7,0,0,1,1.89,1.54,13.36,13.36,0,0,1,1,1.49,7,7,0,0,0,.86,1.28,1,1,0,0,0,.72.44,2.82,2.82,0,0,0,1-.15,1.4,1.4,0,0,0,.71-.56,2.48,2.48,0,0,0,.29-1.39,2.34,2.34,0,0,0-.45-1.37,6.22,6.22,0,0,0-1.38-1.28c-.62-.45-1.34-.93-2.18-1.46-1-.64-2.14-1.36-3.27-2.18A18.72,18.72,0,0,1,514.79,24a13.83,13.83,0,0,1-2.37-4,14.9,14.9,0,0,1-.89-5.38,20.19,20.19,0,0,1,.54-4.58A13.58,13.58,0,0,1,514,5.68a10.58,10.58,0,0,1,3.76-3.46A11.8,11.8,0,0,1,523.65.89c3.68.15,6.36,1.23,8,3.25a14.25,14.25,0,0,1,3,7.56,9.3,9.3,0,0,1,.11,1.39,7.09,7.09,0,0,1-.32,2,4.1,4.1,0,0,1-1.45,2,6,6,0,0,1-6.28.05,3.64,3.64,0,0,1-1.44-1.92,7.63,7.63,0,0,1-.29-2.08,14.36,14.36,0,0,1,.09-1.94,14.89,14.89,0,0,0,.11-1.77,3.85,3.85,0,0,0-.13-1.06.87.87,0,0,0-.26-.49,2.23,2.23,0,0,0-.62-.14A2.35,2.35,0,0,0,523,8a2.82,2.82,0,0,0-.88,1,5.67,5.67,0,0,0-.6,1.78A11.91,11.91,0,0,0,521.28,13Z"/></g></g></svg>